<svg width="353" height="399" viewBox="0 0 353 399" fill="none" xmlns="http://www.w3.org/2000/svg">
<path fill-rule="evenodd" clip-rule="evenodd" d="M83.6031 0.719037C83.4091 1.09804 82.5591 4.32404 81.7141 7.88904C76.4041 30.309 74.0441 39.923 72.2611 46.407C69.9151 54.944 66.4101 68.786 65.6041 72.704C65.4151 73.623 63.0141 82.651 60.9751 90.111C58.6881 98.477 57.2941 103.709 56.8781 105.481C56.6391 106.5 54.1261 116.583 51.2931 127.889C45.7581 149.975 44.6391 154.476 43.4651 159.37C41.0881 169.275 40.4511 170.453 37.8301 169.792C30.9711 168.066 15.4361 172.715 11.2631 177.744C10.9821 178.083 10.1391 178.747 9.39107 179.219C6.55207 181.011 1.95607 188.426 0.736069 193.185C-1.46593 201.772 2.94107 210.973 11.2011 215.037C12.8601 215.853 13.7401 216.146 17.4501 217.119C19.4201 217.635 24.1281 217.632 26.3841 217.112C43.7171 213.119 49.4321 205.339 58.8641 172.889C59.3971 171.056 60.1701 168.389 60.5811 166.963C61.2901 164.506 61.8611 162.575 64.5761 153.444C65.2121 151.306 66.2521 147.806 66.8871 145.667C67.5221 143.528 68.4341 140.528 68.9141 139C70.2101 134.875 71.6601 129.891 72.4161 126.963C72.7841 125.537 73.3511 123.454 73.6761 122.333C74.5171 119.427 75.5201 115.777 76.8811 110.667C77.5331 108.222 78.5231 104.722 79.0831 102.889C79.6431 101.056 80.4041 98.556 80.7741 97.333C81.1451 96.111 82.6251 90.444 84.0641 84.741C87.2381 72.156 87.2791 72.11 89.6971 78.444C92.3701 85.444 120.173 169.583 123.905 181.963C126.527 190.663 128.298 196.319 131.5 206.222C133.212 211.519 135.463 218.685 136.502 222.148C137.54 225.611 139.955 233.194 141.868 239C143.781 244.806 146.041 251.889 146.89 254.741C149.582 263.778 151.317 269.355 153.689 276.593C154.958 280.463 156.542 285.546 157.211 287.889C157.88 290.231 159.006 293.981 159.713 296.222C160.421 298.463 161.312 301.423 161.692 302.799C163.305 308.631 163.88 310.518 165.275 314.556C166.084 316.898 166.957 319.565 167.214 320.481C167.471 321.398 168.655 325.126 169.846 328.767C171.979 335.291 172.002 335.404 171.425 336.73C170.334 339.239 169.859 348.18 170.488 354.37C172.746 376.588 189.345 394.567 210.831 398.068C211.696 398.208 212.498 398.476 212.613 398.662C212.886 399.105 228.966 399.105 229.239 398.662C229.354 398.476 230.156 398.208 231.02 398.068C239.452 396.694 245.578 393.934 254.562 387.462C262.505 381.739 270.299 368.502 272.737 356.593C276.962 335.953 266.909 312.259 250.288 303.682C249.632 303.343 248.514 302.672 247.804 302.19C243.797 299.47 233.713 297.15 225.883 297.146C211.689 297.138 199.469 301.759 188.922 311.124C185.689 313.995 185.801 314.236 176.318 284.185C175.194 280.62 172.437 272.074 170.192 265.194C165.538 250.927 165.735 251.916 167.315 250.717C169.069 249.388 191.317 238.644 198.148 235.829C199.981 235.073 202.579 233.984 203.921 233.407C212.194 229.854 225.483 224.964 231.111 223.403C240.063 220.918 245.156 219.71 249.815 218.965C263.832 216.724 271.647 216.549 282.407 218.235C287.487 219.031 287.746 219.084 291.759 220.165C303.817 223.411 316.078 232.297 324.115 243.615C329.95 251.832 336.622 266.775 337.958 274.62C340 286.61 340.186 288.61 340.186 298.559C340.185 308.88 339.836 312.761 337.964 323.259C336.241 332.921 330.096 348.991 323.376 361.407C319.703 368.192 320.431 368.51 324.752 362.01C330.856 352.826 335.034 344.325 341.432 328.074C343.894 321.821 348.356 306.056 349.557 299.37C349.648 298.861 349.976 297.194 350.285 295.667C350.594 294.139 351.05 291.389 351.299 289.556C351.547 287.722 351.928 285.306 352.146 284.185C352.716 281.249 352.697 261.642 352.12 258.63C351.867 257.306 351.484 255.139 351.268 253.815C348.347 235.851 341.643 221.81 330.624 210.582C325.257 205.112 321.064 202.216 310.815 196.896C309.138 196.026 304.198 194.281 301.944 193.763C301.181 193.588 299.847 193.277 298.981 193.072C288.172 190.513 269.553 190.021 259.074 192.017C250.732 193.605 247.277 194.438 240.185 196.566C238.465 197.083 224.956 202.282 220.37 204.192C218.944 204.786 216.528 205.766 215 206.369C211.395 207.791 181.081 222.924 179.63 224.025C179.019 224.489 176.352 225.94 173.704 227.249C171.056 228.558 167.426 230.416 165.639 231.377C160.518 234.13 160.605 234.258 155.012 215.667C151.111 202.698 150.103 199.438 145.913 186.222C144.557 181.944 143.146 177.361 142.778 176.037C142.409 174.713 141.441 171.63 140.627 169.185C138.46 162.684 135.37 152.889 135.37 152.523C135.37 152.348 134.684 150.026 133.846 147.362C133.007 144.698 131.567 140.102 130.646 137.148C129.725 134.194 127.479 127.194 125.655 121.593C123.831 115.991 122.196 110.907 122.021 110.296C121.406 108.147 116.767 93.608 116.112 91.778C114.901 88.393 110.967 76.279 109.798 72.333C108.277 67.202 103.569 53.131 99.8231 42.519C98.1681 37.833 96.5581 33.167 96.2441 32.148C95.9291 31.13 95.4221 29.63 95.1171 28.815C94.8121 28 93.8451 25.25 92.9691 22.704C92.0941 20.157 90.6741 16.324 89.8151 14.185C88.9571 12.046 87.4361 8.13504 86.4361 5.49404C84.4361 0.212037 84.1301 -0.303963 83.6031 0.719037Z" fill="#FCFCFC"/>
</svg>
